<svg xmlns="http://www.w3.org/2000/svg" width="157.484" height="184.22" viewBox="0 0 157.484 184.22"><defs><style>.a,.b{fill:#fff;}.b{fill-rule:evenodd;}</style></defs><g transform="translate(16.803 86.844)"><path class="a" d="M-2033,1000.915c-15.3,0-27.7,12.086-27.7,26.421h55.349C-2005.346,1013.382-2017.7,1000.915-2033,1000.915Z" transform="translate(2060.695 -1000.915)"/></g><g transform="translate(129.607 0)"><path class="a" d="M-957.639,177.835s-.2,3.265-6.259,7.381c-4.781,3.248-12.371,4.764-16.445,9.323-3.778,4.228-4.5,10.646-4.446,14.762.028,2.056.043,3.453.043,3.453s3.851-7.068,9.064-10.057c4.669-2.677,12.739-3.7,16.186-8.158C-955.114,188.866-957.639,177.835-957.639,177.835Zm-21.841,13.683c3.858-3.691,11.453-5.563,13.9-10.489,1.95-3.927.13-8.417.13-8.417a16.921,16.921,0,0,1-3.748,7.663c-4.354,4.816-8.236,5.421-11.747,9.689a17.332,17.332,0,0,0-3.583,10.057A20.419,20.419,0,0,1-979.48,191.517Z" transform="translate(984.792 -172.612)"/></g><g transform="translate(2.01 165.216)"><path class="a" d="M-2196.492,1764.734h-2.246a4.654,4.654,0,0,1-1.225-.152,2.744,2.744,0,0,1-.963-.463,2.153,2.153,0,0,1-.632-.784,2.512,2.512,0,0,1-.228-1.105,2.424,2.424,0,0,1,.205-1,2.212,2.212,0,0,1,.6-.793,2.88,2.88,0,0,1,.958-.526,4.007,4.007,0,0,1,1.288-.191h.179v-.446h1.248v4.215h.82Zm-3.993-6.288a.576.576,0,0,1-.2-.477.577.577,0,0,1,.2-.459.731.731,0,0,1,.495-.174.733.733,0,0,1,.495.174.578.578,0,0,1,.2.459.576.576,0,0,1-.205.477.759.759,0,0,1-.49.165A.761.761,0,0,1-2200.485,1758.446Zm1.926,2.518h-.481a1.8,1.8,0,0,0-.544.085,1.593,1.593,0,0,0-.481.245,1.229,1.229,0,0,0-.344.4,1.112,1.112,0,0,0-.129.54,1.169,1.169,0,0,0,.121.544,1.2,1.2,0,0,0,.321.392,1.377,1.377,0,0,0,.458.24,1.8,1.8,0,0,0,.535.08h.544Zm.009-2.518a.576.576,0,0,1-.205-.477.577.577,0,0,1,.2-.459.732.732,0,0,1,.5-.174.727.727,0,0,1,.5.174.583.583,0,0,1,.2.459.576.576,0,0,1-.2.477.761.761,0,0,1-.49.165A.759.759,0,0,1-2198.55,1758.446Z" transform="translate(2201.786 -1756.4)"/><path class="a" d="M-2151.049,1783.8v-3.77h1.248v3.77h1.639v1.247h-4.75V1783.8Zm-.9,2.985a.561.561,0,0,1-.205-.472.593.593,0,0,1,.2-.464.719.719,0,0,1,.495-.178.72.72,0,0,1,.495.178.593.593,0,0,1,.2.464.562.562,0,0,1-.205.472.768.768,0,0,1-.49.161A.769.769,0,0,1-2151.949,1786.789Zm1.934,0a.564.564,0,0,1-.205-.472.593.593,0,0,1,.2-.464.719.719,0,0,1,.5-.178.717.717,0,0,1,.5.178.6.6,0,0,1,.2.464.563.563,0,0,1-.2.472.769.769,0,0,1-.49.161A.768.768,0,0,1-2150.015,1786.789Z" transform="translate(2158.036 -1776.718)"/><path class="a" d="M-2108.436,1764.931v-5.98h1.827v1.248h-.579v5.98h-2.122v-1.248Z" transform="translate(2119.005 -1757.846)"/><path class="a" d="M-2071.984,1785.643a1.784,1.784,0,0,1-.375.727,1.734,1.734,0,0,1-.7.473,3.088,3.088,0,0,1-1.1.169c-.118,0-.229,0-.329-.013s-.2-.023-.3-.041-.2-.039-.308-.062l-.365-.1-.088-1.257a5.1,5.1,0,0,0,.677.169,3.646,3.646,0,0,0,.624.054,4.063,4.063,0,0,0,.455-.023.9.9,0,0,0,.334-.1.579.579,0,0,0,.223-.218.928.928,0,0,0,.112-.375h-.142a4.843,4.843,0,0,1-1.2-.142,2.811,2.811,0,0,1-.971-.446,2.1,2.1,0,0,1-.651-.779,2.555,2.555,0,0,1-.236-1.146,2.355,2.355,0,0,1,.228-1.051,2.249,2.249,0,0,1,.632-.785,2.953,2.953,0,0,1,.968-.494,4.139,4.139,0,0,1,1.23-.174h1.408l-.009,4.679A3.679,3.679,0,0,1-2071.984,1785.643Zm-2.986-2.558a1.126,1.126,0,0,0,.308.4,1.326,1.326,0,0,0,.459.241,1.93,1.93,0,0,0,.566.08h.526v-2.522h-.526a1.677,1.677,0,0,0-.54.089,1.453,1.453,0,0,0-.463.254,1.267,1.267,0,0,0-.321.4,1.113,1.113,0,0,0-.12.517A1.276,1.276,0,0,0-2074.97,1783.086Z" transform="translate(2089.482 -1776.718)"/><path class="a" d="M-2023.409,1783.8v-1.364a1.678,1.678,0,0,0-.058-.468.965.965,0,0,0-.182-.352.824.824,0,0,0-.317-.245,1.025,1.025,0,0,0-.442-.094h-.534v-1.248h.41a3.261,3.261,0,0,1,1.061.156,1.962,1.962,0,0,1,.793.512,1.7,1.7,0,0,1,.4.771,4.267,4.267,0,0,1,.116,1.021v1.31h.962v1.247h-5.321V1783.8Z" transform="translate(2044.896 -1776.718)"/><path class="a" d="M-1976.518,1764.931v-5.98h1.827v1.248h-.579v5.98h-2.122v-1.248Z" transform="translate(2000.918 -1757.846)"/><path class="a" d="M-1936.788,1758.951v7.228h-1.248v-7.228Z" transform="translate(1965.689 -1757.846)"/><path class="a" d="M-1892.13,1773.494a3.272,3.272,0,0,1-.6-.129,2.385,2.385,0,0,1-.5-.228,2.461,2.461,0,0,1-.432-.334,1.691,1.691,0,0,1-.464-.807,3.99,3.99,0,0,1-.133-1.038v-2.914h1.248v2.763a2.394,2.394,0,0,0,.085.682.952.952,0,0,0,.29.459,1.273,1.273,0,0,0,.579.267,3.721,3.721,0,0,0,.749.071h.713v-4.242h1.248v3.128h.963v1.248h-.963v1.114h-2.05A6.03,6.03,0,0,1-1892.13,1773.494Zm-.124-6.413a.593.593,0,0,1-.219-.5.6.6,0,0,1,.21-.477.761.761,0,0,1,.521-.183.76.76,0,0,1,.521.183.6.6,0,0,1,.21.477.592.592,0,0,1-.218.5.81.81,0,0,1-.512.17A.811.811,0,0,1-1892.254,1767.081Z" transform="translate(1926.506 -1764.086)"/><path class="a" d="M-1838,1783.8v-3.77h1.248v3.77h1.64v1.247h-4.75V1783.8Zm-.9,2.985a.562.562,0,0,1-.2-.472.591.591,0,0,1,.2-.464.718.718,0,0,1,.495-.178.718.718,0,0,1,.494.178.592.592,0,0,1,.2.464.563.563,0,0,1-.2.472.771.771,0,0,1-.49.161A.77.77,0,0,1-1838.9,1786.789Zm1.934,0a.562.562,0,0,1-.205-.472.592.592,0,0,1,.2-.464.718.718,0,0,1,.494-.178.716.716,0,0,1,.5.178.6.6,0,0,1,.2.464.562.562,0,0,1-.2.472.77.77,0,0,1-.49.161A.767.767,0,0,1-1836.968,1786.789Z" transform="translate(1877.81 -1776.718)"/><path class="a" d="M-1794.319,1778.476v-3.324h1.248v3.324h.909a1.778,1.778,0,0,0,.406-.049,1.032,1.032,0,0,0,.383-.178.95.95,0,0,0,.28-.343,1.208,1.208,0,0,0,.107-.544v-2.21h1.248v2.21a1.283,1.283,0,0,0,.317.91,1.1,1.1,0,0,0,.807.294,1.011,1.011,0,0,0,.8-.3,1.194,1.194,0,0,0,.267-.82v-3.36h1.239v3.2a2.75,2.75,0,0,1-.571,1.912,2.251,2.251,0,0,1-1.738.619,3.3,3.3,0,0,1-.508-.04,2.113,2.113,0,0,1-.481-.139,1.755,1.755,0,0,1-.432-.263,1.63,1.63,0,0,1-.352-.414,2.471,2.471,0,0,1-.8.561,2.368,2.368,0,0,1-.972.205h-4.1v-1.248Z" transform="translate(1838.779 -1771.391)"/><path class="a" d="M-1685.532,1758.951v5.98h1.141v1.248h-2.389v-7.228Z" transform="translate(1740.777 -1757.846)"/><path class="a" d="M-1663.753,1783.8v-3.77h1.248v5.018h-3.111V1783.8Zm-1.363,2.985a.563.563,0,0,1-.205-.472.593.593,0,0,1,.2-.464.718.718,0,0,1,.495-.178.719.719,0,0,1,.495.178.593.593,0,0,1,.2.464.563.563,0,0,1-.2.472.769.769,0,0,1-.49.161A.769.769,0,0,1-1665.117,1786.789Zm1.934,0a.562.562,0,0,1-.205-.472.592.592,0,0,1,.2-.464.719.719,0,0,1,.495-.178.715.715,0,0,1,.5.178.6.6,0,0,1,.2.464.562.562,0,0,1-.205.472.767.767,0,0,1-.49.161A.768.768,0,0,1-1663.183,1786.789Z" transform="translate(1721.832 -1776.718)"/><path class="a" d="M-1602.582,1783.8v-1.364a1.674,1.674,0,0,0-.058-.468.958.958,0,0,0-.182-.352.823.823,0,0,0-.316-.245,1.025,1.025,0,0,0-.441-.094h-.535v-1.248h.41a3.259,3.259,0,0,1,1.061.156,1.96,1.96,0,0,1,.793.512,1.7,1.7,0,0,1,.4.771,4.236,4.236,0,0,1,.116,1.021v1.31h.963v1.247h-5.321V1783.8Z" transform="translate(1668.191 -1776.718)"/><path class="a" d="M-1555.7,1787.835a1.688,1.688,0,0,1-.049-.276c-.009-.1-.013-.193-.013-.294a2.7,2.7,0,0,1,.209-1.065,2.773,2.773,0,0,1,.571-.865,2.665,2.665,0,0,1,.847-.583,2.542,2.542,0,0,1,1.038-.214,2.682,2.682,0,0,1,1.056.209,2.723,2.723,0,0,1,.864.575,2.626,2.626,0,0,1,.579.865,2.761,2.761,0,0,1,.209,1.078,2.357,2.357,0,0,1-.018.294c-.012.095-.027.187-.045.276h1v1.248h-1.667a2.642,2.642,0,0,1-.887.624,2.7,2.7,0,0,1-1.092.223,2.555,2.555,0,0,1-1.07-.227,2.8,2.8,0,0,1-.873-.62h-1.524v-1.248Zm3.173.74a1.438,1.438,0,0,0,.468-.3,1.336,1.336,0,0,0,.312-.454,1.45,1.45,0,0,0,.112-.575,1.553,1.553,0,0,0-.107-.58,1.368,1.368,0,0,0-.3-.463,1.433,1.433,0,0,0-.464-.308,1.519,1.519,0,0,0-.588-.111,1.384,1.384,0,0,0-.571.115,1.4,1.4,0,0,0-.446.313,1.441,1.441,0,0,0-.294.463,1.53,1.53,0,0,0-.106.571,1.494,1.494,0,0,0,.106.566,1.359,1.359,0,0,0,.3.455,1.43,1.43,0,0,0,.45.3,1.414,1.414,0,0,0,.562.111A1.512,1.512,0,0,0-1552.526,1788.575Z" transform="translate(1624.212 -1780.75)"/><path class="a" d="M-1486.735,1782.357a5.345,5.345,0,0,0,.112-.642,5.576,5.576,0,0,0,.04-.633,1.768,1.768,0,0,0-.1-.575,1.165,1.165,0,0,0-.334-.5,1.535,1.535,0,0,0-1.052-.338,2.372,2.372,0,0,0-.65.084,2.516,2.516,0,0,0-.642.308l-.517-1.087a4.653,4.653,0,0,1,.918-.4,3.45,3.45,0,0,1,1.042-.151,2.7,2.7,0,0,1,1,.178,2.172,2.172,0,0,1,.771.508,2.755,2.755,0,0,1,.579.878,3.026,3.026,0,0,1,.223,1.2,5.525,5.525,0,0,1-.045.7c-.03.231-.065.455-.107.668s-.088.41-.138.589-.1.333-.138.463h-4.661v-1.248Z" transform="translate(1565.016 -1775.272)"/><path class="a" d="M-1429.192,1751.21a1.247,1.247,0,0,1,.824-.249h.446v.4h-.374a.5.5,0,0,0-.375.116.467.467,0,0,0-.107.33h1.141v.668h-1.854v-.409A1.061,1.061,0,0,1-1429.192,1751.21Zm1.261,1.667v6.15h-1.247v-6.15Z" transform="translate(1510.462 -1750.694)"/><path class="a" d="M-1386.222,1767.124a3.312,3.312,0,0,0,.321.713l-.971.455a4.142,4.142,0,0,1-.521-1.03,3.932,3.932,0,0,1-.191-1.279,4.617,4.617,0,0,1,.08-.9h3.3a5.358,5.358,0,0,0,.111-.641,5.661,5.661,0,0,0,.04-.633,1.768,1.768,0,0,0-.1-.574,1.163,1.163,0,0,0-.334-.5,1.535,1.535,0,0,0-1.052-.338,2.347,2.347,0,0,0-.651.084,2.513,2.513,0,0,0-.642.307l-.517-1.087a4.7,4.7,0,0,1,.918-.4,3.456,3.456,0,0,1,1.043-.152,2.693,2.693,0,0,1,1,.179,2.184,2.184,0,0,1,.771.508,2.76,2.76,0,0,1,.579.878,3.027,3.027,0,0,1,.223,1.2,5.673,5.673,0,0,1-.031.6q-.031.294-.085.579h.882v1.248h-4.269v.134A2.294,2.294,0,0,0-1386.222,1767.124Zm.076-6.845a.591.591,0,0,1-.219-.5.6.6,0,0,1,.209-.477.765.765,0,0,1,.522-.183.766.766,0,0,1,.521.183.6.6,0,0,1,.209.477.592.592,0,0,1-.218.5.812.812,0,0,1-.512.17A.811.811,0,0,1-1386.146,1760.279Z" transform="translate(1472.952 -1757.998)"/><path class="a" d="M-1334.64,1783.8v-3.77h1.248v3.77h1.64v1.247h-4.75V1783.8Zm-.9,2.985a.563.563,0,0,1-.205-.472.592.592,0,0,1,.2-.464.72.72,0,0,1,.495-.178.72.72,0,0,1,.495.178.593.593,0,0,1,.2.464.563.563,0,0,1-.2.472.77.77,0,0,1-.49.161A.768.768,0,0,1-1335.539,1786.789Zm1.934,0a.562.562,0,0,1-.205-.472.593.593,0,0,1,.2-.464.719.719,0,0,1,.495-.178.716.716,0,0,1,.5.178.6.6,0,0,1,.2.464.563.563,0,0,1-.205.472.769.769,0,0,1-.49.161A.768.768,0,0,1-1333.605,1786.789Z" transform="translate(1427.224 -1776.718)"/><path class="a" d="M-1286.29,1754.39a1.257,1.257,0,0,0,.321.9,1.1,1.1,0,0,0,.8.294,1.013,1.013,0,0,0,.8-.3,1.2,1.2,0,0,0,.267-.819v-3.36h1.239v3.2c0,.154-.006.3-.018.436a3.831,3.831,0,0,1-.054.392,1.382,1.382,0,0,0,.562.272,2.748,2.748,0,0,0,.7.093v1.248a2.768,2.768,0,0,1-.633-.063,1.75,1.75,0,0,1-.459-.169,1.205,1.205,0,0,1-.312-.24,1.755,1.755,0,0,1-.2-.267,2.1,2.1,0,0,1-1.89.828,3.145,3.145,0,0,1-.508-.04,2.062,2.062,0,0,1-.481-.138,1.765,1.765,0,0,1-.432-.263,1.616,1.616,0,0,1-.352-.414,2.49,2.49,0,0,1-.8.562,2.385,2.385,0,0,1-.971.2h-4.1V1755.5h1.943v-3.324h1.248v3.324h.909a1.779,1.779,0,0,0,.406-.049,1.017,1.017,0,0,0,.383-.178.948.948,0,0,0,.281-.343,1.216,1.216,0,0,0,.107-.544v-2.21h1.248v2.219Zm-2.054-3.631a.557.557,0,0,1-.2-.468.566.566,0,0,1,.192-.446.694.694,0,0,1,.477-.17.712.712,0,0,1,.481.17.56.56,0,0,1,.2.446.553.553,0,0,1-.2.468.762.762,0,0,1-.473.156A.742.742,0,0,1-1288.344,1750.759Zm1-1.4a.478.478,0,0,1-.183-.405.5.5,0,0,1,.169-.392.617.617,0,0,1,.428-.151.617.617,0,0,1,.428.151.5.5,0,0,1,.169.392.483.483,0,0,1-.178.405.665.665,0,0,1-.419.138A.671.671,0,0,1-1287.346,1749.359Zm.892,1.4a.557.557,0,0,1-.2-.468.566.566,0,0,1,.192-.446.7.7,0,0,1,.477-.17.706.706,0,0,1,.486.17.566.566,0,0,1,.192.446.557.557,0,0,1-.2.468.755.755,0,0,1-.477.156A.741.741,0,0,1-1286.455,1750.759Z" transform="translate(1388.116 -1748.41)"/><path class="a" d="M-1187.561,1764.931v-5.98h1.827v1.248h-.579v5.98h-2.121v-1.248Z" transform="translate(1294.681 -1757.846)"/><path class="a" d="M-1147.832,1758.951v7.228h-1.248v-7.228Z" transform="translate(1259.452 -1757.846)"/><path class="a" d="M-1100.013,1764.734h-2.246a4.657,4.657,0,0,1-1.225-.152,2.743,2.743,0,0,1-.963-.463,2.154,2.154,0,0,1-.633-.784,2.524,2.524,0,0,1-.227-1.105,2.435,2.435,0,0,1,.2-1,2.22,2.22,0,0,1,.6-.793,2.888,2.888,0,0,1,.958-.526,4.007,4.007,0,0,1,1.288-.191h.178v-.446h1.248v4.215h.82Zm-3.993-6.288a.576.576,0,0,1-.205-.477.577.577,0,0,1,.2-.459.732.732,0,0,1,.495-.174.731.731,0,0,1,.495.174.578.578,0,0,1,.2.459.575.575,0,0,1-.205.477.759.759,0,0,1-.49.165A.759.759,0,0,1-1104.006,1758.446Zm1.925,2.518h-.481a1.788,1.788,0,0,0-.543.085,1.6,1.6,0,0,0-.482.245,1.234,1.234,0,0,0-.343.4,1.1,1.1,0,0,0-.13.54,1.161,1.161,0,0,0,.121.544,1.205,1.205,0,0,0,.321.392,1.37,1.37,0,0,0,.459.24,1.8,1.8,0,0,0,.535.08h.544Zm.009-2.518a.577.577,0,0,1-.2-.477.579.579,0,0,1,.2-.459.732.732,0,0,1,.495-.174.727.727,0,0,1,.5.174.583.583,0,0,1,.2.459.576.576,0,0,1-.2.477.76.76,0,0,1-.49.165A.759.759,0,0,1-1102.072,1758.446Z" transform="translate(1220.269 -1756.4)"/><path class="a" d="M-1049.518,1778.258a1.1,1.1,0,0,0,.815.307,1.012,1.012,0,0,0,.8-.3,1.2,1.2,0,0,0,.267-.82v-3.36h1.239v3.2c0,.143-.006.278-.018.406s-.027.251-.045.37a1.64,1.64,0,0,0,1.248.419v1.248a2.848,2.848,0,0,1-.633-.062,1.707,1.707,0,0,1-.455-.169,1.223,1.223,0,0,1-.308-.241,1.76,1.76,0,0,1-.2-.267,2.125,2.125,0,0,1-1.9.829,3.3,3.3,0,0,1-.508-.04,2.108,2.108,0,0,1-.481-.139,1.743,1.743,0,0,1-.432-.263,1.612,1.612,0,0,1-.352-.414,2.473,2.473,0,0,1-.8.561,2.369,2.369,0,0,1-.971.205h-4.1v-1.248h1.943v-3.324h1.247v3.324h.909a1.773,1.773,0,0,0,.405-.049,1.027,1.027,0,0,0,.383-.178.951.951,0,0,0,.281-.343,1.214,1.214,0,0,0,.107-.544v-2.21h1.247v2.157A1.3,1.3,0,0,0-1049.518,1778.258Z" transform="translate(1176.444 -1771.391)"/><path class="a" d="M-949.941,1778.476v-3.324h1.248v3.324h.909a1.775,1.775,0,0,0,.406-.049,1.027,1.027,0,0,0,.383-.178.952.952,0,0,0,.281-.343,1.213,1.213,0,0,0,.107-.544v-2.21h1.248v2.21a1.284,1.284,0,0,0,.316.91,1.1,1.1,0,0,0,.807.294,1.012,1.012,0,0,0,.8-.3,1.194,1.194,0,0,0,.267-.82v-3.36h1.239v3.2a2.749,2.749,0,0,1-.57,1.912,2.251,2.251,0,0,1-1.738.619,3.3,3.3,0,0,1-.508-.04,2.108,2.108,0,0,1-.481-.139,1.746,1.746,0,0,1-.432-.263,1.609,1.609,0,0,1-.352-.414,2.475,2.475,0,0,1-.8.561,2.368,2.368,0,0,1-.972.205h-4.1v-1.248Z" transform="translate(1082.931 -1771.391)"/><path class="a" d="M-843.493,1762.877v1.248h-.847a2.991,2.991,0,0,1-.169.8,1.639,1.639,0,0,1-.4.619,1.8,1.8,0,0,1-.686.4,3.169,3.169,0,0,1-1.016.143q-.178,0-.33-.013c-.1-.009-.2-.022-.3-.04s-.2-.039-.307-.062l-.366-.1-.089-1.256a5.141,5.141,0,0,0,.677.169,3.736,3.736,0,0,0,.624.053,4.014,4.014,0,0,0,.454-.022.912.912,0,0,0,.334-.1.58.58,0,0,0,.223-.219.939.939,0,0,0,.111-.374h-.142a4.828,4.828,0,0,1-1.2-.143,2.8,2.8,0,0,1-.971-.446,2.1,2.1,0,0,1-.651-.78,2.556,2.556,0,0,1-.236-1.145,2.36,2.36,0,0,1,.227-1.052,2.251,2.251,0,0,1,.633-.784,2.946,2.946,0,0,1,.967-.5,4.155,4.155,0,0,1,1.23-.174h1.408l-.009,3.77Zm-3.926-.717a1.135,1.135,0,0,0,.308.4,1.327,1.327,0,0,0,.459.24,1.93,1.93,0,0,0,.566.08h.526v-2.522h-.526a1.666,1.666,0,0,0-.539.089,1.466,1.466,0,0,0-.463.254,1.267,1.267,0,0,0-.321.4,1.106,1.106,0,0,0-.12.517A1.278,1.278,0,0,0-847.419,1762.16Zm1.524-5.254a1.248,1.248,0,0,1,.824-.249h.535v.4H-845a.5.5,0,0,0-.374.116.468.468,0,0,0-.107.33v.24h1.23v.668h-1.943v-.65A1.063,1.063,0,0,1-845.895,1756.905Z" transform="translate(990.636 -1755.791)"/><path class="a" d="M-799.125,1787.835a1.668,1.668,0,0,1-.049-.276c-.009-.1-.013-.193-.013-.294a2.7,2.7,0,0,1,.209-1.065,2.773,2.773,0,0,1,.571-.865,2.667,2.667,0,0,1,.846-.583,2.544,2.544,0,0,1,1.038-.214,2.68,2.68,0,0,1,1.056.209,2.719,2.719,0,0,1,.865.575,2.63,2.63,0,0,1,.579.865,2.759,2.759,0,0,1,.209,1.078,2.543,2.543,0,0,1-.218,1.056,2.653,2.653,0,0,1-.593.842,2.81,2.81,0,0,1-.864.561,2.653,2.653,0,0,1-1.034.205,2.551,2.551,0,0,1-1.069-.227,2.81,2.81,0,0,1-.874-.62h-1.524v-1.248Zm3.173.74a1.437,1.437,0,0,0,.468-.3,1.34,1.34,0,0,0,.312-.454,1.458,1.458,0,0,0,.111-.575,1.552,1.552,0,0,0-.107-.58,1.361,1.361,0,0,0-.3-.463,1.429,1.429,0,0,0-.463-.308,1.521,1.521,0,0,0-.588-.111,1.383,1.383,0,0,0-.57.115,1.4,1.4,0,0,0-.446.313,1.436,1.436,0,0,0-.294.463,1.526,1.526,0,0,0-.107.571,1.49,1.49,0,0,0,.107.566,1.355,1.355,0,0,0,.3.455,1.43,1.43,0,0,0,.45.3,1.412,1.412,0,0,0,.561.111A1.513,1.513,0,0,0-795.953,1788.575Z" transform="translate(946.963 -1780.75)"/></g><g transform="translate(2.266 178.732)"><path class="a" d="M-2198.346,1882.236a2.562,2.562,0,0,0,.8.125,1.712,1.712,0,0,0,1.02-.266.887.887,0,0,0,.368-.764.912.912,0,0,0-.084-.4.927.927,0,0,0-.243-.307,1.616,1.616,0,0,0-.394-.237,4.99,4.99,0,0,0-.521-.192l-.384-.115a2.261,2.261,0,0,1-1.04-.579,1.261,1.261,0,0,1-.336-.879,1.142,1.142,0,0,1,.144-.585,1.233,1.233,0,0,1,.381-.406,1.639,1.639,0,0,1,.527-.233,2.412,2.412,0,0,1,.6-.074,3.321,3.321,0,0,1,.931.128,3.508,3.508,0,0,1,.853.384l-.243.4a3.13,3.13,0,0,0-.745-.349,2.7,2.7,0,0,0-.809-.118,1.934,1.934,0,0,0-.451.051,1.132,1.132,0,0,0-.365.15.755.755,0,0,0-.24.253.7.7,0,0,0-.09.358.834.834,0,0,0,.259.643,2.078,2.078,0,0,0,.784.406l.422.128a4.622,4.622,0,0,1,.547.2,2.059,2.059,0,0,1,.489.3,1.486,1.486,0,0,1,.355.435,1.214,1.214,0,0,1,.137.592,1.352,1.352,0,0,1-.493,1.126,2.173,2.173,0,0,1-1.382.39,3.371,3.371,0,0,1-.931-.128,3.418,3.418,0,0,1-.866-.383l.25-.409A3.487,3.487,0,0,0-2198.346,1882.236Z" transform="translate(2199.341 -1877.32)"/><path class="a" d="M-2153.393,1879.747a5.231,5.231,0,0,1,.534-.029,2.741,2.741,0,0,1,.6.064,1.1,1.1,0,0,1,.479.237,1.078,1.078,0,0,1,.307.463,2.178,2.178,0,0,1,.105.732v2.13h-.454v-1.938a2.2,2.2,0,0,0-.073-.629.883.883,0,0,0-.2-.371.733.733,0,0,0-.33-.185,1.755,1.755,0,0,0-.46-.054,5.161,5.161,0,0,0-.985.1v3.076h-.454v-5.354h.454v1.817C-2153.741,1879.787-2153.582,1879.766-2153.393,1879.747Z" transform="translate(2159.043 -1877.921)"/><path class="a" d="M-2116.324,1897.615a2.621,2.621,0,0,0,.579-.262l.218.416a2.957,2.957,0,0,1-.669.288,3.028,3.028,0,0,1-.822.1,1.785,1.785,0,0,1-.716-.141,1.764,1.764,0,0,1-.57-.387,1.779,1.779,0,0,1-.381-.582,1.921,1.921,0,0,1-.137-.733,1.917,1.917,0,0,1,.14-.745,1.817,1.817,0,0,1,.386-.582,1.789,1.789,0,0,1,.573-.384,1.8,1.8,0,0,1,.7-.137,1.8,1.8,0,0,1,.7.131,1.527,1.527,0,0,1,.54.377,1.754,1.754,0,0,1,.355.595,2.61,2.61,0,0,1,.134.861h-3.044a1.436,1.436,0,0,0,.1.464,1.233,1.233,0,0,0,.271.432,1.281,1.281,0,0,0,.416.281,1.337,1.337,0,0,0,.528.1A2.387,2.387,0,0,0-2116.324,1897.615Zm-1.2-2.616a1.146,1.146,0,0,0-.388.246,1.33,1.33,0,0,0-.262.371,1.462,1.462,0,0,0-.128.368h2.495a1.28,1.28,0,0,0-.119-.394,1.224,1.224,0,0,0-.255-.368,1.053,1.053,0,0,0-.368-.233,1.3,1.3,0,0,0-.466-.081A1.378,1.378,0,0,0-2117.527,1895Z" transform="translate(2127.264 -1892.665)"/><path class="a" d="M-2077.913,1881.144a.334.334,0,0,1,.1.243.334.334,0,0,1-.1.243.332.332,0,0,1-.243.1.332.332,0,0,1-.244-.1.335.335,0,0,1-.1-.243.335.335,0,0,1,.1-.243.334.334,0,0,1,.244-.1A.333.333,0,0,1-2077.913,1881.144Zm-.019,1.375v3.556h-.455v-3.556Z" transform="translate(2091.171 -1880.651)"/><path class="a" d="M-2061.238,1877.991h.455v3.383l1.694-1.586h.653l-1.906,1.759,2.066,1.8h-.684l-1.823-1.586v1.586h-.455Z" transform="translate(2075.718 -1877.921)"/><path class="a" d="M-2027.674,1879.747a5.252,5.252,0,0,1,.535-.029,2.735,2.735,0,0,1,.6.064,1.108,1.108,0,0,1,.48.237,1.079,1.079,0,0,1,.306.463,2.183,2.183,0,0,1,.106.732v2.13h-.455v-1.938a2.194,2.194,0,0,0-.073-.629.884.884,0,0,0-.2-.371.728.728,0,0,0-.329-.185,1.76,1.76,0,0,0-.461-.054,5.155,5.155,0,0,0-.984.1v3.076h-.454v-5.354h.454v1.817C-2028.022,1879.787-2027.863,1879.766-2027.674,1879.747Z" transform="translate(2046.505 -1877.921)"/><path class="a" d="M-1970.034,1883.345l-.677-1.688h-2.354l-.678,1.688h-.511l2.149-5.354h.435l2.149,5.354Zm-.863-2.156-.991-2.456-.992,2.456Z" transform="translate(1997.854 -1877.921)"/><path class="a" d="M-1921.6,1879.747a5.238,5.238,0,0,1,.534-.029,2.736,2.736,0,0,1,.6.064,1.1,1.1,0,0,1,.48.237,1.077,1.077,0,0,1,.307.463,2.165,2.165,0,0,1,.106.732v2.13h-.454v-1.938a2.211,2.211,0,0,0-.073-.629.881.881,0,0,0-.2-.371.729.729,0,0,0-.33-.185,1.753,1.753,0,0,0-.46-.054,5.152,5.152,0,0,0-.985.1v3.076h-.454v-5.354h.454v1.817C-1921.945,1879.787-1921.786,1879.766-1921.6,1879.747Z" transform="translate(1951.55 -1877.921)"/><path class="a" d="M-1878.583,1895.508a.865.865,0,0,0-.182-.368.637.637,0,0,0-.31-.179,1.79,1.79,0,0,0-.454-.052,1.909,1.909,0,0,0-.23.016,2.334,2.334,0,0,0-.259.048,2.624,2.624,0,0,0-.266.08c-.09.032-.147.055-.173.068a1.9,1.9,0,0,1,.093.323,2.442,2.442,0,0,1,.048.515v2.129h-.454v-1.95a2.457,2.457,0,0,0-.064-.627.844.844,0,0,0-.188-.368.667.667,0,0,0-.316-.182,1.816,1.816,0,0,0-.461-.052,2.5,2.5,0,0,0-.419.032q-.189.032-.387.077v3.07h-.454v-3.44l.729-.135a3.13,3.13,0,0,1,.563-.051,2.568,2.568,0,0,1,.6.064.894.894,0,0,1,.418.211,3.057,3.057,0,0,1,.6-.2,2.937,2.937,0,0,1,.646-.08,2.573,2.573,0,0,1,.6.064.993.993,0,0,1,.454.24,1.125,1.125,0,0,1,.288.464,2.284,2.284,0,0,1,.1.729v2.129h-.454v-1.95A2.522,2.522,0,0,0-1878.583,1895.508Z" transform="translate(1916.221 -1892.665)"/><path class="a" d="M-1826,1898.095a1.655,1.655,0,0,1-.506-.185,1.032,1.032,0,0,1-.358-.345.978.978,0,0,1-.137-.531.958.958,0,0,1,.492-.909,2.675,2.675,0,0,1,1.3-.275q.153,0,.361.019c.139.013.257.026.355.039v-.039a.959.959,0,0,0-.243-.739,1.086,1.086,0,0,0-.749-.221,1.728,1.728,0,0,0-.291.026c-.1.017-.2.039-.3.064a1.955,1.955,0,0,0-.284.1q-.134.057-.377.192l.02-.512a2.762,2.762,0,0,1,.665-.244,2.879,2.879,0,0,1,.6-.07,1.526,1.526,0,0,1,1.062.323,1.333,1.333,0,0,1,.351,1.026v2.079a3.362,3.362,0,0,1-.671.2,3.825,3.825,0,0,1-.7.064A2.981,2.981,0,0,1-1826,1898.095Zm1.183-1.772a4.26,4.26,0,0,0-.452-.025,3.362,3.362,0,0,0-.47.032,1.563,1.563,0,0,0-.4.108.659.659,0,0,0-.275.214.621.621,0,0,0-.1.368.6.6,0,0,0,.083.333.636.636,0,0,0,.224.208,1,1,0,0,0,.342.112,2.663,2.663,0,0,0,.426.032,3.133,3.133,0,0,0,.524-.044,2.323,2.323,0,0,0,.429-.109v-1.184C-1824.549,1896.356-1824.658,1896.34-1824.817,1896.323Z" transform="translate(1866.04 -1892.665)"/><path class="a" d="M-1788.228,1877.991v5.239a4.837,4.837,0,0,1-.618.134,3.756,3.756,0,0,1-.547.045,2.579,2.579,0,0,1-.9-.144,1.839,1.839,0,0,1-.643-.39,1.543,1.543,0,0,1-.38-.582,2.036,2.036,0,0,1-.125-.713,2.063,2.063,0,0,1,.125-.717,1.625,1.625,0,0,1,.38-.594,1.8,1.8,0,0,1,.643-.4,2.526,2.526,0,0,1,.9-.147,4.381,4.381,0,0,1,.71.07v-1.8Zm-2.348,4.6a1.624,1.624,0,0,0,1.171.368,2.543,2.543,0,0,0,.367-.029q.195-.029.355-.061v-2.616a2.626,2.626,0,0,0-.39-.071q-.192-.019-.332-.019a2.13,2.13,0,0,0-.691.1,1.279,1.279,0,0,0-.48.284,1.146,1.146,0,0,0-.284.444,1.733,1.733,0,0,0-.093.586A1.351,1.351,0,0,0-1790.576,1882.593Z" transform="translate(1834.206 -1877.921)"/><path class="a" d="M-1729.36,1877.991l-1.951,3.179v2.175h-.473v-2.175l-1.951-3.179h.543l1.645,2.661,1.644-2.661Z" transform="translate(1782.552 -1877.921)"/><path class="a" d="M-1692.352,1898.095a1.655,1.655,0,0,1-.506-.185,1.031,1.031,0,0,1-.358-.345.974.974,0,0,1-.138-.531.959.959,0,0,1,.493-.909,2.675,2.675,0,0,1,1.3-.275q.153,0,.361.019c.139.013.257.026.355.039v-.039a.959.959,0,0,0-.244-.739,1.085,1.085,0,0,0-.748-.221,1.728,1.728,0,0,0-.291.026c-.1.017-.2.039-.3.064a1.938,1.938,0,0,0-.285.1q-.134.057-.377.192l.019-.512a2.771,2.771,0,0,1,.665-.244,2.884,2.884,0,0,1,.6-.07,1.524,1.524,0,0,1,1.061.323,1.333,1.333,0,0,1,.352,1.026v2.079a3.357,3.357,0,0,1-.671.2,3.829,3.829,0,0,1-.7.064A2.98,2.98,0,0,1-1692.352,1898.095Zm1.183-1.772a4.265,4.265,0,0,0-.451-.025,3.347,3.347,0,0,0-.47.032,1.547,1.547,0,0,0-.4.108.647.647,0,0,0-.275.214.615.615,0,0,0-.1.368.6.6,0,0,0,.084.333.636.636,0,0,0,.224.208,1.012,1.012,0,0,0,.342.112,2.672,2.672,0,0,0,.426.032,3.142,3.142,0,0,0,.525-.044,2.33,2.33,0,0,0,.429-.109v-1.184C-1690.9,1896.356-1691.009,1896.34-1691.168,1896.323Z" transform="translate(1746.404 -1892.665)"/><path class="a" d="M-1654.79,1897.676a1.262,1.262,0,0,0,.326-.09.5.5,0,0,0,.215-.169.476.476,0,0,0,.077-.281.468.468,0,0,0-.191-.39,1.665,1.665,0,0,0-.64-.243l-.268-.058a3.805,3.805,0,0,1-.557-.169,1.331,1.331,0,0,1-.377-.22.746.746,0,0,1-.211-.294,1.022,1.022,0,0,1-.064-.371.724.724,0,0,1,.1-.377.937.937,0,0,1,.278-.294,1.378,1.378,0,0,1,.416-.189,1.941,1.941,0,0,1,.521-.067,2.856,2.856,0,0,1,1.381.339l-.2.416a2.547,2.547,0,0,0-.57-.24,2.407,2.407,0,0,0-.607-.068,1.186,1.186,0,0,0-.62.132.4.4,0,0,0-.212.355.406.406,0,0,0,.179.358,1.961,1.961,0,0,0,.646.218l.237.051a3.461,3.461,0,0,1,.576.176,1.423,1.423,0,0,1,.39.233.745.745,0,0,1,.218.313,1.145,1.145,0,0,1,.064.39.877.877,0,0,1-.109.441.909.909,0,0,1-.31.32,1.528,1.528,0,0,1-.476.192,2.667,2.667,0,0,1-.608.064,2.9,2.9,0,0,1-.707-.083,2.834,2.834,0,0,1-.675-.275l.217-.435a2.347,2.347,0,0,0,.6.265,2.144,2.144,0,0,0,.56.08A2.573,2.573,0,0,0-1654.79,1897.676Z" transform="translate(1713.478 -1892.665)"/><path class="a" d="M-1619.958,1897.676a1.269,1.269,0,0,0,.326-.09.5.5,0,0,0,.214-.169.478.478,0,0,0,.077-.281.468.468,0,0,0-.192-.39,1.66,1.66,0,0,0-.64-.243l-.268-.058a3.84,3.84,0,0,1-.557-.169,1.32,1.32,0,0,1-.377-.22.741.741,0,0,1-.211-.294,1.024,1.024,0,0,1-.064-.371.719.719,0,0,1,.1-.377.926.926,0,0,1,.278-.294,1.389,1.389,0,0,1,.416-.189,1.946,1.946,0,0,1,.521-.067,2.86,2.86,0,0,1,1.382.339l-.205.416a2.536,2.536,0,0,0-.569-.24,2.411,2.411,0,0,0-.608-.068,1.187,1.187,0,0,0-.62.132.4.4,0,0,0-.211.355.4.4,0,0,0,.179.358,1.95,1.95,0,0,0,.646.218l.236.051a3.5,3.5,0,0,1,.576.176,1.433,1.433,0,0,1,.39.233.752.752,0,0,1,.217.313,1.151,1.151,0,0,1,.064.39.882.882,0,0,1-.109.441.907.907,0,0,1-.311.32,1.522,1.522,0,0,1-.476.192,2.661,2.661,0,0,1-.608.064,2.908,2.908,0,0,1-.707-.083,2.842,2.842,0,0,1-.675-.275l.217-.435a2.361,2.361,0,0,0,.6.265,2.142,2.142,0,0,0,.56.08A2.589,2.589,0,0,0-1619.958,1897.676Z" transform="translate(1682.299 -1892.665)"/><path class="a" d="M-1584.674,1881.144a.334.334,0,0,1,.1.243.333.333,0,0,1-.1.243.332.332,0,0,1-.243.1.33.33,0,0,1-.243-.1.332.332,0,0,1-.1-.243.332.332,0,0,1,.1-.243.331.331,0,0,1,.243-.1A.333.333,0,0,1-1584.674,1881.144Zm-.019,1.375v3.556h-.454v-3.556Z" transform="translate(1649.646 -1880.651)"/><path class="a" d="M-1567.206,1894.5a5.928,5.928,0,0,1,.671-.042,2.709,2.709,0,0,1,.6.064,1.107,1.107,0,0,1,.479.237,1.081,1.081,0,0,1,.307.464,2.173,2.173,0,0,1,.105.732v2.129h-.454v-1.938a2.208,2.208,0,0,0-.073-.63.877.877,0,0,0-.2-.371.726.726,0,0,0-.33-.186,1.729,1.729,0,0,0-.46-.055,5.164,5.164,0,0,0-.985.1v3.076H-1568v-3.46Q-1567.564,1894.545-1567.206,1894.5Z" transform="translate(1634.193 -1892.665)"/><path class="a" d="M-1507.183,1877.991h.473v5.354h-.473Z" transform="translate(1579.753 -1877.921)"/><path class="a" d="M-1488.822,1894.5a5.932,5.932,0,0,1,.672-.042,2.708,2.708,0,0,1,.6.064,1.1,1.1,0,0,1,.479.237,1.081,1.081,0,0,1,.307.464,2.176,2.176,0,0,1,.106.732v2.129h-.454v-1.938a2.208,2.208,0,0,0-.073-.63.879.879,0,0,0-.2-.371.729.729,0,0,0-.33-.186,1.732,1.732,0,0,0-.461-.055,5.166,5.166,0,0,0-.985.1v3.076h-.454v-3.46Q-1489.18,1894.545-1488.822,1894.5Z" transform="translate(1564.027 -1892.665)"/><path class="a" d="M-1454.275,1884.157v-1.285h.454v1.285h1.471v.442h-1.471v1.733a2.1,2.1,0,0,0,.042.46.64.64,0,0,0,.131.281.517.517,0,0,0,.243.151,1.314,1.314,0,0,0,.384.048h.716v.441h-.671a2.05,2.05,0,0,1-.515-.061,1.115,1.115,0,0,1-.412-.2.9.9,0,0,1-.275-.371,1.486,1.486,0,0,1-.1-.569V1884.6h-.754v-.442Z" transform="translate(1533.067 -1882.289)"/><path class="a" d="M-1422.947,1897.615a2.615,2.615,0,0,0,.579-.262l.218.416a2.964,2.964,0,0,1-.668.288,3.029,3.029,0,0,1-.822.1,1.787,1.787,0,0,1-.716-.141,1.78,1.78,0,0,1-.569-.387,1.77,1.77,0,0,1-.38-.582,1.91,1.91,0,0,1-.138-.733,1.912,1.912,0,0,1,.141-.745,1.8,1.8,0,0,1,.387-.582,1.787,1.787,0,0,1,.573-.384,1.8,1.8,0,0,1,.7-.137,1.8,1.8,0,0,1,.7.131,1.527,1.527,0,0,1,.54.377,1.767,1.767,0,0,1,.355.595,2.622,2.622,0,0,1,.134.861h-3.045a1.431,1.431,0,0,0,.1.464,1.233,1.233,0,0,0,.272.432,1.283,1.283,0,0,0,.415.281,1.339,1.339,0,0,0,.528.1A2.388,2.388,0,0,0-1422.947,1897.615Zm-1.2-2.616a1.137,1.137,0,0,0-.388.246,1.318,1.318,0,0,0-.262.371,1.453,1.453,0,0,0-.128.368h2.495a1.277,1.277,0,0,0-.118-.394,1.231,1.231,0,0,0-.256-.368,1.055,1.055,0,0,0-.368-.233,1.3,1.3,0,0,0-.467-.081A1.376,1.376,0,0,0-1424.149,1895Z" transform="translate(1506.584 -1892.665)"/><path class="a" d="M-1382.823,1895.574a2.854,2.854,0,0,0-.428.036,1.968,1.968,0,0,0-.32.067v3.013h-.454v-3.377q.269-.071.556-.125a3.137,3.137,0,0,1,.582-.054h.653v.441Z" transform="translate(1469.508 -1893.266)"/><path class="a" d="M-1359.809,1894.5a5.925,5.925,0,0,1,.672-.042,2.7,2.7,0,0,1,.6.064,1.108,1.108,0,0,1,.48.237,1.081,1.081,0,0,1,.307.464,2.167,2.167,0,0,1,.105.732v2.129h-.454v-1.938a2.215,2.215,0,0,0-.074-.63.882.882,0,0,0-.2-.371.726.726,0,0,0-.33-.186,1.732,1.732,0,0,0-.46-.055,5.165,5.165,0,0,0-.985.1v3.076h-.454v-3.46Q-1360.167,1894.545-1359.809,1894.5Z" transform="translate(1448.541 -1892.665)"/><path class="a" d="M-1322.94,1898.095a1.652,1.652,0,0,1-.505-.185,1.028,1.028,0,0,1-.358-.345.976.976,0,0,1-.137-.531.959.959,0,0,1,.492-.909,2.678,2.678,0,0,1,1.305-.275c.1,0,.223.007.361.019s.257.026.355.039v-.039a.958.958,0,0,0-.243-.739,1.087,1.087,0,0,0-.749-.221,1.726,1.726,0,0,0-.291.026q-.15.026-.3.064a1.914,1.914,0,0,0-.285.1q-.134.057-.378.192l.019-.512a2.767,2.767,0,0,1,.665-.244,2.882,2.882,0,0,1,.6-.07,1.523,1.523,0,0,1,1.062.323,1.332,1.332,0,0,1,.352,1.026v2.079a3.36,3.36,0,0,1-.672.2,3.825,3.825,0,0,1-.7.064A2.982,2.982,0,0,1-1322.94,1898.095Zm1.183-1.772a4.25,4.25,0,0,0-.451-.025,3.339,3.339,0,0,0-.47.032,1.558,1.558,0,0,0-.4.108.655.655,0,0,0-.275.214.619.619,0,0,0-.1.368.6.6,0,0,0,.084.333.633.633,0,0,0,.223.208,1,1,0,0,0,.342.112,2.671,2.671,0,0,0,.425.032,3.142,3.142,0,0,0,.525-.044,2.321,2.321,0,0,0,.428-.109v-1.184C-1321.487,1896.356-1321.6,1896.34-1321.757,1896.323Z" transform="translate(1415.723 -1892.665)"/><path class="a" d="M-1288.539,1884.157v-1.285h.454v1.285h1.471v.442h-1.471v1.733a2.107,2.107,0,0,0,.042.46.639.639,0,0,0,.131.281.517.517,0,0,0,.243.151,1.316,1.316,0,0,0,.384.048h.716v.441h-.672a2.044,2.044,0,0,1-.515-.061,1.118,1.118,0,0,1-.413-.2.906.906,0,0,1-.275-.371,1.479,1.479,0,0,1-.1-.569V1884.6h-.755v-.442Z" transform="translate(1384.709 -1882.289)"/><path class="a" d="M-1255.035,1881.144a.333.333,0,0,1,.1.243.333.333,0,0,1-.1.243.332.332,0,0,1-.243.1.33.33,0,0,1-.243-.1.332.332,0,0,1-.1-.243.333.333,0,0,1,.1-.243.331.331,0,0,1,.243-.1A.333.333,0,0,1-1255.035,1881.144Zm-.019,1.375v3.556h-.454v-3.556Z" transform="translate(1354.568 -1880.651)"/><path class="a" d="M-1241.235,1898.009a1.762,1.762,0,0,1-.572-.4,1.869,1.869,0,0,1-.381-.585,1.868,1.868,0,0,1-.137-.717,1.866,1.866,0,0,1,.137-.716,1.877,1.877,0,0,1,.381-.585,1.817,1.817,0,0,1,.572-.4,1.737,1.737,0,0,1,.713-.147,1.736,1.736,0,0,1,.713.147,1.822,1.822,0,0,1,.572.4,1.869,1.869,0,0,1,.381.585,1.855,1.855,0,0,1,.138.716,1.857,1.857,0,0,1-.138.717,1.862,1.862,0,0,1-.381.585,1.767,1.767,0,0,1-.572.4,1.763,1.763,0,0,1-.713.144A1.763,1.763,0,0,1-1241.235,1898.009Zm1.251-.416a1.283,1.283,0,0,0,.416-.3,1.363,1.363,0,0,0,.269-.441,1.513,1.513,0,0,0,.1-.541,1.542,1.542,0,0,0-.1-.544,1.359,1.359,0,0,0-.269-.444,1.29,1.29,0,0,0-.416-.3,1.277,1.277,0,0,0-.537-.112,1.274,1.274,0,0,0-.537.112,1.294,1.294,0,0,0-.416.3,1.369,1.369,0,0,0-.269.444,1.542,1.542,0,0,0-.1.544,1.513,1.513,0,0,0,.1.541,1.373,1.373,0,0,0,.269.441,1.286,1.286,0,0,0,.416.3,1.267,1.267,0,0,0,.537.112A1.269,1.269,0,0,0-1239.984,1897.593Z" transform="translate(1342.665 -1892.665)"/><path class="a" d="M-1199.259,1894.5a5.935,5.935,0,0,1,.672-.042,2.7,2.7,0,0,1,.6.064,1.108,1.108,0,0,1,.48.237,1.082,1.082,0,0,1,.307.464,2.172,2.172,0,0,1,.106.732v2.129h-.454v-1.938a2.226,2.226,0,0,0-.073-.63.882.882,0,0,0-.2-.371.724.724,0,0,0-.33-.186,1.731,1.731,0,0,0-.461-.055,5.171,5.171,0,0,0-.985.1v3.076h-.454v-3.46Q-1199.617,1894.545-1199.259,1894.5Z" transform="translate(1304.823 -1892.665)"/><path class="a" d="M-1162.391,1898.095a1.658,1.658,0,0,1-.505-.185,1.03,1.03,0,0,1-.358-.345.973.973,0,0,1-.138-.531.959.959,0,0,1,.493-.909,2.676,2.676,0,0,1,1.3-.275q.153,0,.361.019c.138.013.257.026.355.039v-.039a.96.96,0,0,0-.243-.739,1.087,1.087,0,0,0-.749-.221,1.734,1.734,0,0,0-.291.026c-.1.017-.2.039-.3.064a1.927,1.927,0,0,0-.285.1c-.089.038-.216.1-.378.192l.02-.512a2.77,2.77,0,0,1,.665-.244,2.879,2.879,0,0,1,.6-.07,1.523,1.523,0,0,1,1.062.323,1.331,1.331,0,0,1,.352,1.026v2.079a3.363,3.363,0,0,1-.672.2,3.827,3.827,0,0,1-.7.064A2.982,2.982,0,0,1-1162.391,1898.095Zm1.183-1.772a4.24,4.24,0,0,0-.451-.025,3.337,3.337,0,0,0-.47.032,1.547,1.547,0,0,0-.4.108.651.651,0,0,0-.275.214.619.619,0,0,0-.1.368.6.6,0,0,0,.083.333.633.633,0,0,0,.223.208,1.01,1.01,0,0,0,.343.112,2.665,2.665,0,0,0,.426.032,3.146,3.146,0,0,0,.524-.044,2.338,2.338,0,0,0,.429-.109v-1.184C-1160.938,1896.356-1161.048,1896.34-1161.208,1896.323Z" transform="translate(1272.007 -1892.665)"/><path class="a" d="M-1123.865,1877.991h.454v5.354h-.454Z" transform="translate(1236.625 -1877.921)"/><path class="a" d="M-1086.35,1877.991h3.07v.454h-2.6v1.88h2.328v.467h-2.328v2.552h-.473Z" transform="translate(1203.043 -1877.921)"/><path class="a" d="M-1054.21,1898.009a1.764,1.764,0,0,1-.573-.4,1.86,1.86,0,0,1-.381-.585,1.861,1.861,0,0,1-.137-.717,1.859,1.859,0,0,1,.137-.716,1.867,1.867,0,0,1,.381-.585,1.819,1.819,0,0,1,.573-.4,1.734,1.734,0,0,1,.713-.147,1.735,1.735,0,0,1,.713.147,1.819,1.819,0,0,1,.573.4,1.875,1.875,0,0,1,.38.585,1.857,1.857,0,0,1,.138.716,1.859,1.859,0,0,1-.138.717,1.867,1.867,0,0,1-.38.585,1.764,1.764,0,0,1-.573.4,1.761,1.761,0,0,1-.713.144A1.76,1.76,0,0,1-1054.21,1898.009Zm1.25-.416a1.279,1.279,0,0,0,.416-.3,1.368,1.368,0,0,0,.269-.441,1.511,1.511,0,0,0,.1-.541,1.54,1.54,0,0,0-.1-.544,1.363,1.363,0,0,0-.269-.444,1.287,1.287,0,0,0-.416-.3,1.273,1.273,0,0,0-.537-.112,1.275,1.275,0,0,0-.537.112,1.292,1.292,0,0,0-.416.3,1.352,1.352,0,0,0-.269.444,1.537,1.537,0,0,0-.1.544,1.508,1.508,0,0,0,.1.541,1.356,1.356,0,0,0,.269.441,1.285,1.285,0,0,0,.416.3,1.268,1.268,0,0,0,.537.112A1.265,1.265,0,0,0-1052.96,1897.593Z" transform="translate(1175.249 -1892.665)"/><path class="a" d="M-1010.773,1895.133v3.39a6.941,6.941,0,0,1-.764.176,4.189,4.189,0,0,1-.668.054,2.6,2.6,0,0,1-.6-.063,1.012,1.012,0,0,1-.454-.237,1.067,1.067,0,0,1-.285-.464,2.371,2.371,0,0,1-.1-.732v-2.123h.454v1.931a2.569,2.569,0,0,0,.064.633.863.863,0,0,0,.182.371.652.652,0,0,0,.307.182,1.642,1.642,0,0,0,.451.054,3.625,3.625,0,0,0,.464-.032,3.332,3.332,0,0,0,.489-.1v-3.038Z" transform="translate(1137.954 -1893.266)"/><path class="a" d="M-973.684,1894.5a5.92,5.92,0,0,1,.671-.042,2.7,2.7,0,0,1,.6.064,1.105,1.105,0,0,1,.48.237,1.08,1.08,0,0,1,.307.464,2.169,2.169,0,0,1,.106.732v2.129h-.454v-1.938a2.207,2.207,0,0,0-.073-.63.882.882,0,0,0-.2-.371.727.727,0,0,0-.33-.186,1.732,1.732,0,0,0-.46-.055,5.166,5.166,0,0,0-.985.1v3.076h-.454v-3.46Q-974.042,1894.545-973.684,1894.5Z" transform="translate(1102.899 -1892.665)"/><path class="a" d="M-935.765,1877.991v5.239a4.811,4.811,0,0,1-.617.134,3.758,3.758,0,0,1-.547.045,2.577,2.577,0,0,1-.9-.144,1.841,1.841,0,0,1-.643-.39,1.546,1.546,0,0,1-.38-.582,2.031,2.031,0,0,1-.125-.713,2.057,2.057,0,0,1,.125-.717,1.629,1.629,0,0,1,.38-.594,1.8,1.8,0,0,1,.643-.4,2.525,2.525,0,0,1,.9-.147,4.384,4.384,0,0,1,.71.07v-1.8Zm-2.347,4.6a1.622,1.622,0,0,0,1.17.368,2.544,2.544,0,0,0,.368-.029q.2-.029.355-.061v-2.616a2.637,2.637,0,0,0-.39-.071c-.128-.013-.239-.019-.333-.019a2.132,2.132,0,0,0-.691.1,1.275,1.275,0,0,0-.48.284,1.145,1.145,0,0,0-.285.444,1.733,1.733,0,0,0-.093.586A1.35,1.35,0,0,0-938.113,1882.593Z" transform="translate(1071.121 -1877.921)"/><path class="a" d="M-898.325,1898.095a1.653,1.653,0,0,1-.505-.185,1.029,1.029,0,0,1-.358-.345.973.973,0,0,1-.138-.531.959.959,0,0,1,.492-.909,2.674,2.674,0,0,1,1.3-.275q.154,0,.361.019c.139.013.257.026.355.039v-.039a.96.96,0,0,0-.243-.739,1.087,1.087,0,0,0-.749-.221,1.732,1.732,0,0,0-.291.026c-.1.017-.2.039-.3.064a1.95,1.95,0,0,0-.285.1q-.134.057-.377.192l.019-.512a2.774,2.774,0,0,1,.665-.244,2.883,2.883,0,0,1,.6-.07,1.525,1.525,0,0,1,1.062.323,1.333,1.333,0,0,1,.352,1.026v2.079a3.352,3.352,0,0,1-.671.2,3.83,3.83,0,0,1-.7.064A2.983,2.983,0,0,1-898.325,1898.095Zm1.183-1.772a4.255,4.255,0,0,0-.451-.025,3.351,3.351,0,0,0-.47.032,1.555,1.555,0,0,0-.4.108.65.65,0,0,0-.275.214.615.615,0,0,0-.1.368.6.6,0,0,0,.083.333.636.636,0,0,0,.224.208,1,1,0,0,0,.342.112,2.662,2.662,0,0,0,.425.032,3.145,3.145,0,0,0,.525-.044,2.32,2.32,0,0,0,.428-.109v-1.184C-896.872,1896.356-896.982,1896.34-897.142,1896.323Z" transform="translate(1035.628 -1892.665)"/><path class="a" d="M-863.924,1884.157v-1.285h.454v1.285H-862v.442h-1.471v1.733a2.1,2.1,0,0,0,.042.46.636.636,0,0,0,.131.281.517.517,0,0,0,.243.151,1.314,1.314,0,0,0,.384.048h.716v.441h-.672a2.045,2.045,0,0,1-.515-.061,1.118,1.118,0,0,1-.413-.2.9.9,0,0,1-.275-.371,1.483,1.483,0,0,1-.1-.569V1884.6h-.755v-.442Z" transform="translate(1004.613 -1882.289)"/><path class="a" d="M-830.418,1881.144a.333.333,0,0,1,.1.243.333.333,0,0,1-.1.243.331.331,0,0,1-.243.1.332.332,0,0,1-.243-.1.332.332,0,0,1-.1-.243.333.333,0,0,1,.1-.243.333.333,0,0,1,.243-.1A.332.332,0,0,1-830.418,1881.144Zm-.019,1.375v3.556h-.454v-3.556Z" transform="translate(974.471 -1880.651)"/><path class="a" d="M-816.619,1898.009a1.764,1.764,0,0,1-.572-.4,1.858,1.858,0,0,1-.381-.585,1.861,1.861,0,0,1-.137-.717,1.859,1.859,0,0,1,.137-.716,1.866,1.866,0,0,1,.381-.585,1.819,1.819,0,0,1,.572-.4,1.736,1.736,0,0,1,.713-.147,1.736,1.736,0,0,1,.713.147,1.822,1.822,0,0,1,.572.4,1.875,1.875,0,0,1,.381.585,1.862,1.862,0,0,1,.138.716,1.863,1.863,0,0,1-.138.717,1.867,1.867,0,0,1-.381.585,1.767,1.767,0,0,1-.572.4,1.762,1.762,0,0,1-.713.144A1.762,1.762,0,0,1-816.619,1898.009Zm1.25-.416a1.279,1.279,0,0,0,.415-.3,1.355,1.355,0,0,0,.269-.441,1.5,1.5,0,0,0,.1-.541,1.533,1.533,0,0,0-.1-.544,1.351,1.351,0,0,0-.269-.444,1.286,1.286,0,0,0-.415-.3,1.275,1.275,0,0,0-.537-.112,1.274,1.274,0,0,0-.537.112,1.292,1.292,0,0,0-.416.3,1.358,1.358,0,0,0-.268.444,1.534,1.534,0,0,0-.1.544,1.505,1.505,0,0,0,.1.541,1.362,1.362,0,0,0,.268.441,1.284,1.284,0,0,0,.416.3,1.266,1.266,0,0,0,.537.112A1.267,1.267,0,0,0-815.368,1897.593Z" transform="translate(962.568 -1892.665)"/><path class="a" d="M-774.644,1894.5a5.931,5.931,0,0,1,.672-.042,2.7,2.7,0,0,1,.6.064,1.108,1.108,0,0,1,.48.237,1.081,1.081,0,0,1,.307.464,2.172,2.172,0,0,1,.106.732v2.129h-.454v-1.938a2.209,2.209,0,0,0-.073-.63.878.878,0,0,0-.2-.371.726.726,0,0,0-.329-.186,1.736,1.736,0,0,0-.461-.055,5.163,5.163,0,0,0-.985.1v3.076h-.454v-3.46Q-775,1894.545-774.644,1894.5Z" transform="translate(924.728 -1892.665)"/></g><g transform="translate(129.76 30.202)"><path class="b" d="M-969.77,460.675v62.1a5.033,5.033,0,0,1-5.033,5.033h-8.53V473.08a36.5,36.5,0,0,1,6.14-8.077A22.189,22.189,0,0,1-969.77,460.675Z" transform="translate(983.333 -460.675)"/></g><g transform="translate(111.517 53.931)"><path class="b" d="M-1143.77,687v38.373a5.033,5.033,0,0,1-5.033,5.033h-8.53V687Z" transform="translate(1157.333 -686.995)"/></g><g transform="translate(93.425 53.931)"><path class="b" d="M-1316.33,687V730.4h-13.563V687Z" transform="translate(1329.893 -686.995)"/></g><g transform="translate(0 53.931)"><path class="b" d="M-2132.061,687v38.373s.047,5.771.026,13.941c-.018,6.777.678,16-2.718,23.653-3.434,7.736-7.858,14.8-15.1,20.281-6.208,4.7-16.5,8.656-24.535,8.656-13.382,0-24.172-3.925-33.969-13.362a41.125,41.125,0,0,1-10.267-17.086,49.456,49.456,0,0,1-2.24-12.179h13.237a34.874,34.874,0,0,0,3.95,12.632,31.132,31.132,0,0,0,27.4,16.482c15.059,0,25.223-10.06,29.164-21.565,1.949-5.691,1.42-11.747,1.485-16.985.1-8.061,0-14.224,0-14.469V687Z" transform="translate(2220.957 -686.995)"/></g><g transform="translate(127.466 106.018)"><circle class="a" cx="7.876" cy="7.876" r="7.876"/></g><g transform="translate(108.994 104.858)"><circle class="a" cx="7.876" cy="7.876" r="7.876" transform="matrix(0.16, -0.987, 0.987, 0.16, 0, 15.549)"/></g><g transform="translate(0.403 72.342)"><path class="b" d="M-2188.1,862.591a46.155,46.155,0,0,0-16.814,10.653,41.128,41.128,0,0,0-10.266,17.086c-2.089,6.616-1.837,8.4-1.837,8.4h13.236s.046-2.376,3.548-8.857a31.352,31.352,0,0,1,22.87-16.163" transform="translate(2217.116 -862.591)"/></g><g transform="translate(44.004 75.068)"><rect class="a" width="0.981" height="11.751"/></g><g transform="translate(41.955 77.9)"><circle class="a" cx="1.925" cy="1.925" r="1.925" transform="translate(0 1.473) rotate(-22.5)"/></g><g transform="translate(42.841 81.863)"><circle class="a" cx="1.152" cy="1.152" r="1.152" transform="translate(0 1.629) rotate(-45)"/></g><g transform="translate(42.841 75.698)"><circle class="a" cx="1.152" cy="1.152" r="1.152" transform="translate(0 1.629) rotate(-45)"/></g><g transform="translate(41.186 68.914)"><path class="b" d="M-1824.811,834.546a2.265,2.265,0,0,0,2.315-2.642c-.141-1.036-1.2-2.074-1.024-2a3.31,3.31,0,0,1,2.005,3.042,3.309,3.309,0,0,1-3.309,3.309,3.309,3.309,0,0,1-3.309-3.309,3.31,3.31,0,0,1,1.873-2.982c.191-.092-.787.929-.943,1.938A2.215,2.215,0,0,0-1824.811,834.546Z" transform="translate(1828.133 -829.902)"/></g></svg>